PathFileType	4	(X/Y/Z)	C:\Users\°ÂÌØÂü\Desktop\20201223\Trimmed_bx_n_5_501.trc
DataRate	CameraRate	NumFrames	NumMarkers	Units	OrigDataRate	OrigDataStartFrame	OrigNumFrames
50.00	50.00	      7	43	mm	50.00	1265	      1445
Frame#	Time	Top.Head			R.Acromium			L.Acromium			Sternum			R.ASIS			L.ASIS			V.Sacral			R.Thigh.Upper			R.Thigh.Front			R.Thigh.Rear			R.Knee.Lat			R.Knee.Med			R.Shank.Upper			R.Shank.Front			R.Shank.Rear			R.Ankle.Lat			R.Midfoot.Lat			R.Toe.Lat			R.Toe.Tip			R.Toe.Med			R.Ankle.Med			R.Midfoot.Sup			R.Heel			L.Thigh.Upper			L.Thigh.Front			L.Thigh.Rear			L.Knee.Lat			L.Knee.Med			L.Shank.Upper			L.Shank.Front			L.Shank.Rear			L.Ankle.Lat			L.Midfoot.Lat			L.Toe.Lat			L.Toe.Tip			L.Toe.Med			L.Ankle.Med			L.Midfoot.Sup			L.Heel			origin1 front left			origin2 front right			origin 3 back right			origin 4 back leftt			
		X1	Y1	Z1	X2	Y2	Z2	X3	Y3	Z3	X4	Y4	Z4	X5	Y5	Z5	X6	Y6	Z6	X7	Y7	Z7	X8	Y8	Z8	X9	Y9	Z9	X10	Y10	Z10	X11	Y11	Z11	X12	Y12	Z12	X13	Y13	Z13	X14	Y14	Z14	X15	Y15	Z15	X16	Y16	Z16	X17	Y17	Z17	X18	Y18	Z18	X19	Y19	Z19	X20	Y20	Z20	X21	Y21	Z21	X22	Y22	Z22	X23	Y23	Z23	X24	Y24	Z24	X25	Y25	Z25	X26	Y26	Z26	X27	Y27	Z27	X28	Y28	Z28	X29	Y29	Z29	X30	Y30	Z30	X31	Y31	Z31	X32	Y32	Z32	X33	Y33	Z33	X34	Y34	Z34	X35	Y35	Z35	X36	Y36	Z36	X37	Y37	Z37	X38	Y38	Z38	X39	Y39	Z39	X40	Y40	Z40	X41	Y41	Z41	X42	Y42	Z42	X43	Y43	Z43	

1265	25.280	-733.96582	259.13272	1828.17847	-672.29724	84.74623	1524.25110	-669.79114	446.84894	1532.31555	-551.81903	266.91107	1365.04065	-534.25708	134.91486	1038.98828	-489.27130	369.85809	1049.97119	-726.59656	258.35907	1053.53345	-613.43274	81.72993	838.02734	-524.44849	138.89543	816.07202	-620.86786	95.60729	729.07800	-661.49506	116.62465	610.04315	-636.29089	222.10640	564.39471	-693.53046	117.07550	542.46075	-613.92889	161.56224	525.53601	-703.97333	109.29590	491.14917	-699.80377	135.38335	212.54681	-625.14758	72.25922	164.08038	-578.23895	49.09586	160.04962	-502.51382	94.73231	160.05812	-544.08521	144.87811	164.16866	-648.49219	210.16173	219.59616	-607.23224	183.33405	171.12192	-733.12921	201.46814	169.54713	-602.16681	441.17627	855.38928	-520.51312	391.33408	815.51642	-628.85455	428.06497	742.33911	-648.83545	409.73697	607.47284	-622.08026	297.87982	568.74963	-666.49023	411.70813	561.20801	-607.05219	358.16232	536.04498	-721.94788	411.66476	497.74484	-681.06122	407.71414	214.68314	-588.67828	462.55087	163.32426	-551.10809	474.60007	158.26668	-488.19775	424.51801	166.69908	-526.38318	384.08594	176.34198	-642.75238	318.81900	209.00272	-593.68506	342.22733	170.15303	-731.68542	335.87772	162.55179	-443.78311	448.92529	146.84015	-450.40881	74.96191	143.06667	-806.27264	82.61832	140.66537	-800.03442	456.38806	144.56322	
1266	25.300	-732.96252	258.23358	1828.31189	-671.67456	83.96753	1524.22949	-669.18134	446.04007	1532.45972	-551.37000	266.18399	1364.96326	-534.08990	134.28807	1038.86462	-489.06790	369.28244	1049.81458	-726.43500	257.73511	1053.65369	-613.36523	81.24297	837.90289	-524.42596	138.38326	815.98627	-620.88342	95.17252	728.98950	-661.58435	116.24890	609.98730	-636.53680	221.76274	564.44122	-693.65009	116.74800	542.38910	-614.08496	161.28682	525.53882	-704.08331	109.01520	491.07104	-699.79150	135.32855	212.54602	-625.15527	72.22462	164.05238	-578.24677	49.07981	160.03075	-502.50192	94.74695	160.05095	-544.08716	144.87611	164.16351	-648.54974	210.11176	219.60307	-607.22974	183.32101	171.12993	-733.12079	201.46703	169.53853	-602.10193	440.66293	855.42438	-520.46619	390.88315	815.50458	-628.84003	427.63171	742.32355	-648.84601	409.34726	607.47321	-622.16589	297.50464	569.10553	-666.47406	411.41400	561.26385	-607.04340	357.84274	535.97681	-721.94727	411.34805	497.78473	-681.02209	407.63785	214.69864	-588.66156	462.54001	163.34729	-551.10980	474.58347	158.27165	-488.20947	424.54514	166.71918	-526.37335	384.08624	176.33768	-642.75934	318.71701	208.98174	-593.62073	342.15610	170.19434	-731.65308	335.81494	162.54848	-443.78839	448.91360	146.84813	-450.40982	74.96388	143.06635	-806.25800	82.62556	140.64825	-800.03046	456.38806	144.55803	
1267	25.320	-731.92218	257.30450	1828.45947	-671.05316	83.16807	1524.20520	-668.61340	445.20853	1532.59839	-550.93951	265.44745	1364.88733	-533.91870	133.66656	1038.73779	-488.94379	368.69058	1049.64563	-726.28259	257.10596	1053.76343	-613.28729	80.76344	837.77649	-524.39862	137.89149	815.88922	-620.89160	94.74649	728.90344	-661.66510	115.88115	609.93536	-636.76672	221.42697	564.47833	-693.76160	116.42365	542.31604	-614.23242	161.02104	525.53400	-704.18225	108.74242	490.99219	-699.78546	135.27344	212.54243	-625.16370	72.19205	164.02654	-578.25635	49.06339	160.00983	-502.49146	94.76003	160.04475	-544.08911	144.87543	164.15901	-648.61127	210.06326	219.60686	-607.22900	183.30794	171.13339	-733.12012	201.45966	169.52997	-602.05774	440.16467	855.46063	-520.43311	390.45239	815.49695	-628.83618	427.21564	742.31360	-648.86456	408.96530	607.47217	-622.29401	297.13449	569.45483	-666.46704	411.12906	561.30695	-607.04169	357.52838	535.91394	-721.95819	411.03973	497.82532	-680.99542	407.57462	214.71198	-588.64618	462.53171	163.36885	-551.11035	474.57196	158.27744	-488.22461	424.56802	166.74242	-526.36731	384.08801	176.33289	-642.77557	318.63843	208.95345	-593.58234	342.10495	170.21619	-731.62372	335.75854	162.54832	-443.79135	448.90005	146.85397	-450.41046	74.96510	143.06717	-806.23767	82.63004	140.62994	-800.02563	456.38715	144.55463	
1268	25.340	-730.85022	256.35373	1828.61890	-670.43604	82.35146	1524.17810	-668.08826	444.35834	1532.72852	-550.52521	264.70587	1364.81226	-533.73926	133.05074	1038.60864	-488.89847	368.08347	1049.46497	-726.13635	256.47232	1053.86243	-613.19385	80.29124	837.65070	-524.36182	137.42630	815.77985	-620.88702	94.33229	728.81769	-661.73706	115.52317	609.88617	-636.97882	221.10449	564.50146	-693.86157	116.10403	542.24176	-614.36926	160.76750	525.52020	-704.26648	108.47777	490.91473	-699.78552	135.21761	212.53665	-625.17255	72.16245	164.00308	-578.26715	49.04666	159.98724	-502.48184	94.77057	160.03923	-544.09039	144.87656	164.15462	-648.67297	210.01811	219.60951	-607.23004	183.29538	171.13234	-733.12689	201.44655	169.52194	-602.03137	439.68176	855.49701	-520.40985	390.04099	815.49188	-628.83801	426.82031	742.31219	-648.88696	408.59445	607.47211	-622.46356	296.77054	569.79504	-666.46606	410.85281	561.33844	-607.04449	357.22449	535.85956	-721.97845	410.74362	497.86646	-680.98041	407.52603	214.72571	-588.63245	462.52539	163.38908	-551.10974	474.56552	158.28368	-488.24149	424.58701	166.76729	-526.36407	384.08994	176.32680	-642.79993	318.58295	208.91524	-593.56622	342.07172	170.21992	-731.59814	335.71033	162.55023	-443.79233	448.88574	146.85783	-450.41064	74.96558	143.06897	-806.21448	82.63288	140.61108	-800.02026	456.38510	144.55333	
1269	25.360	-729.75122	255.38988	1828.78809	-669.82465	81.52164	1524.14844	-667.60577	443.49423	1532.84778	-550.12408	263.96399	1364.73767	-533.54883	132.44179	1038.47827	-488.93146	367.46210	1049.27283	-725.99438	255.83482	1053.95166	-613.08154	79.82605	837.52789	-524.31189	136.99120	815.65955	-620.86536	93.93266	728.72968	-661.79962	115.17590	609.83838	-637.17267	220.79968	564.50806	-693.94733	115.79108	542.16656	-614.49384	160.52748	525.49707	-704.33380	108.22134	490.84067	-699.79114	135.16090	212.52942	-625.18121	72.13667	163.98235	-578.27850	49.02987	159.96347	-502.47272	94.77788	160.03413	-544.09021	144.88011	164.14960	-648.73132	209.97772	219.61337	-607.23254	183.28374	171.12741	-733.14032	201.42856	169.51462	-602.01959	439.21396	855.53290	-520.39270	389.64661	815.48749	-628.84161	426.44766	742.32190	-648.90936	408.23782	607.47510	-622.67352	296.41388	570.12378	-666.46796	410.58389	561.35986	-607.04974	356.93625	535.81567	-722.00507	410.46286	497.90747	-680.97559	407.49255	214.74228	-588.62048	462.52029	163.40811	-551.10803	474.56351	158.29007	-488.25858	424.60242	166.79208	-526.36273	384.09106	176.31912	-642.83173	318.54816	208.86415	-593.56720	342.05344	170.20876	-731.57751	335.67209	162.55336	-443.79187	448.87170	146.86000	-450.41037	74.96564	143.07161	-806.19098	82.63483	140.59293	-800.01483	456.38174	144.55423	
1270	25.380	-728.62866	254.42171	1828.96509	-669.21875	80.68272	1524.11658	-667.16492	442.62128	1532.95483	-549.73370	263.22623	1364.66321	-533.34668	131.84232	1038.34668	-489.04233	366.82745	1049.06982	-725.85559	255.19415	1054.03223	-612.94885	79.36752	837.40997	-524.24628	136.58696	815.53156	-620.82373	93.54956	728.63672	-661.85217	114.83939	609.79047	-637.34924	220.51550	564.49756	-694.01666	115.48675	542.09082	-614.60492	160.30092	525.46509	-704.38373	107.97314	490.77179	-699.80127	135.10349	212.52162	-625.18915	72.11539	163.96465	-578.28992	49.01343	159.93904	-502.46390	94.78170	160.02931	-544.08813	144.88673	164.14319	-648.78326	209.94293	219.62088	-607.23621	183.27324	171.11963	-733.15918	201.40688	169.50795	-602.01904	438.76050	855.56818	-520.37860	389.26559	815.48206	-628.84406	426.09756	742.34412	-648.92847	407.89813	607.48309	-622.92279	296.06567	570.43890	-666.46954	410.32047	561.37280	-607.05560	356.66794	535.78320	-722.03467	410.19974	497.94724	-680.97894	407.47333	214.76366	-588.61047	462.51547	163.42601	-551.10547	474.56476	158.29648	-488.27463	424.61456	166.81500	-526.36237	384.09082	176.31001	-642.87012	318.52975	208.79768	-593.57959	342.04672	170.18694	-731.56311	335.64548	162.55724	-443.79056	448.85876	146.86082	-450.40973	74.96574	143.07491	-806.16949	82.63614	140.57700	-800.00958	456.37701	144.55714	
1271	25.400	-727.48438	253.45773	1829.14868	-668.61694	79.83881	1524.08289	-666.76349	441.74475	1533.04919	-549.35205	262.49637	1364.58899	-533.13397	131.25642	1038.21313	-489.23056	366.18048	1048.85645	-725.71973	254.55104	1054.10535	-612.79614	78.91539	837.29810	-524.16394	136.21173	815.40027	-620.76062	93.18393	728.53687	-661.89380	114.51301	609.74115	-637.51056	220.25322	564.47186	-694.06885	115.19260	542.01508	-614.70215	160.08653	525.42584	-704.41724	107.73296	490.70923	-699.81451	135.04594	212.51407	-625.19580	72.09906	163.95030	-578.30090	48.99784	159.91447	-502.45535	94.78217	160.02475	-544.08392	144.89693	164.13469	-648.82648	209.91408	219.63434	-607.24048	183.26401	171.11032	-733.18195	201.38284	169.50169	-602.02655	438.32019	855.60278	-520.36560	388.89380	815.47418	-628.84406	425.76813	742.37915	-648.94202	407.57709	607.49731	-623.21033	295.72696	570.73822	-666.46844	410.06049	561.37872	-607.06097	356.42227	535.76141	-722.06396	409.95547	497.98428	-680.98840	407.46631	214.79106	-588.60242	462.51010	163.44284	-551.10236	474.56778	158.30289	-488.28864	424.62344	166.83421	-526.36206	384.08902	176.29993	-642.91431	318.52237	208.71426	-593.59790	342.04813	170.15898	-731.55646	335.63177	162.56165	-443.78897	448.84750	146.86050	-450.40887	74.96638	143.07858	-806.15204	82.63673	140.56496	-800.00488	456.37103	144.56166	
